<svg width="1000" height="340" viewBox="0 0 1000 340" xmlns="http://www.w3.org/2000/svg" shape-rendering="crispEdges">
  <rect width="1000" height="340" rx="20" fill="#165a72"/>
  <g fill="#247e8a"><rect y="36" width="1000" height="12"/><rect y="126" width="1000" height="10"/><rect y="252" width="1000" height="12"/></g>
  <g fill="#63d2c6" opacity=".8"><rect x="20" y="82" width="90" height="6"/><rect x="184" y="82" width="58" height="6"/><rect x="354" y="82" width="112" height="6"/><rect x="640" y="82" width="74" height="6"/><rect x="810" y="82" width="128" height="6"/><rect x="80" y="290" width="120" height="6"/><rect x="360" y="290" width="86" height="6"/><rect x="650" y="290" width="120" height="6"/><animateTransform attributeName="transform" type="translate" values="-50 0;45 0;-50 0" dur="6s" repeatCount="indefinite"/></g>

  <!-- Route: Web+API → Android → Native Tools → Python → Automation -->
  <path d="M107 254C165 196 228 176 297 180 S428 136 487 144 S626 158 677 180 S808 244 867 254" fill="none" stroke="#f6d273" stroke-width="7" stroke-dasharray="5 15"/>

  <!-- Island 1: WEB + API (start) -->
  <g>
    <path d="M35 272h24v-18h20v-12h52v10h24v18h24v28H35z" fill="#e3a64d"/>
    <rect x="79" y="192" width="56" height="50" fill="#165a72"/>
    <rect x="79" y="192" width="56" height="9" fill="#247e8a"/>
    <rect x="81" y="194" width="4" height="5" fill="#ee7d63"/>
    <rect x="87" y="194" width="4" height="5" fill="#f6d273"/>
    <rect x="93" y="194" width="4" height="5" fill="#63d2c6"/>
    <rect x="79" y="201" width="56" height="41" fill="#fff4dc"/>
    <rect x="83" y="205" width="34" height="4" fill="#247e8a"/>
    <rect x="83" y="213" width="48" height="4" fill="#ee7d63"/>
    <rect x="83" y="221" width="24" height="4" fill="#247e8a"/>
    <rect x="83" y="229" width="42" height="4" fill="#f6d273"/>
    <rect x="35" y="300" width="144" height="26" fill="#fff4dc"/>
    <text x="107" y="318" text-anchor="middle" font-family="Courier New" font-size="13" font-weight="700" fill="#55234e">WEB + API</text>
  </g>

  <!-- Island 2: ANDROID -->
  <g>
    <path d="M225 198h24v-18h20v-12h52v10h24v18h24v28H225z" fill="#e3a64d"/>
    <rect x="266" y="112" width="62" height="56" fill="#a4c639"/>
    <rect x="274" y="104" width="38" height="18" fill="#a4c639"/>
    <rect x="279" y="84" width="5" height="22" fill="#a4c639"/><rect x="305" y="84" width="5" height="22" fill="#a4c639"/>
    <rect x="278" y="110" width="5" height="5" fill="#3b174f"/>
    <rect x="299" y="110" width="5" height="5" fill="#3b174f"/>
    <rect x="225" y="226" width="144" height="26" fill="#fff4dc"/>
    <text x="297" y="244" text-anchor="middle" font-family="Courier New" font-size="13" font-weight="700" fill="#55234e">ANDROID</text>
  </g>

  <!-- Island 3: NATIVE TOOLS (peak) -->
  <g>
    <path d="M415 162h24v-18h20v-12h52v10h24v18h24v28H415z" fill="#e3a64d"/>
    <rect x="459" y="84" width="56" height="48" fill="#8d5638"/>
    <rect x="453" y="97" width="68" height="13" fill="#f6d273"/>
    <rect x="484" y="84" width="10" height="48" fill="#fff4dc"/>
    <rect x="415" y="190" width="144" height="26" fill="#fff4dc"/>
    <text x="487" y="208" text-anchor="middle" font-family="Courier New" font-size="12" font-weight="700" fill="#55234e">NATIVE TOOLS</text>
  </g>

  <!-- Island 4: PYTHON -->
  <g>
    <path d="M605 198h24v-18h20v-12h52v10h24v18h24v28H605z" fill="#e3a64d"/>
    <!-- Python: yellow P on blue block -->
    <rect x="649" y="108" width="56" height="60" fill="#3776ab"/>
    <rect x="655" y="114" width="6" height="48" fill="#ffd343"/>
    <rect x="661" y="114" width="22" height="6" fill="#ffd343"/>
    <rect x="661" y="136" width="22" height="6" fill="#ffd343"/>
    <rect x="683" y="120" width="6" height="16" fill="#ffd343"/>
    <rect x="605" y="226" width="144" height="26" fill="#fff4dc"/>
    <text x="677" y="244" text-anchor="middle" font-family="Courier New" font-size="13" font-weight="700" fill="#55234e">PYTHON</text>
  </g>

  <!-- Island 5: AUTOMATION (end/boss) -->
  <g>
    <path d="M795 272h24v-18h20v-12h52v10h24v18h24v28H795z" fill="#e3a64d"/>
    <rect x="833" y="188" width="68" height="54" fill="#247e8a"/>
    <rect x="827" y="200" width="80" height="20" fill="#247e8a"/>
    <rect x="855" y="188" width="14" height="54" fill="#165a72"/>
    <rect x="849" y="210" width="26" height="10" fill="#165a72"/>
    <rect x="884" y="194" width="6" height="6" fill="#f6d273"/>
    <rect x="886" y="192" width="2" height="10" fill="#f6d273"/>
    <rect x="882" y="196" width="10" height="2" fill="#f6d273"/>
    <rect x="795" y="300" width="144" height="26" fill="#fff4dc"/>
    <text x="867" y="318" text-anchor="middle" font-family="Courier New" font-size="13" font-weight="700" fill="#55234e">AUTOMATION</text>
    <animate attributeName="opacity" values=".8;1;.8" dur="1.5s" repeatCount="indefinite"/>
  </g>

  <!-- Sailing boat -->
  <g>
    <rect x="-22" y="4" width="44" height="12" fill="#8d5638"/>
    <rect x="-3" y="-28" width="6" height="32" fill="#3b174f"/>
    <path d="M3-26l26 22H3z" fill="#fff4dc"/>
    <path d="M-3-18l-16 14h16z" fill="#ee7d63"/>
    <animateMotion path="M107 254C165 196 228 176 297 180 S428 136 487 144 S626 158 677 180 S808 244 867 254" dur="12s" repeatCount="indefinite" rotate="auto"/>
  </g>

  <g font-family="Courier New,monospace" fill="#fff4dc" font-weight="700"><text x="24" y="28" font-size="18">CURRENT QUEST: KEEP SHIPPING</text><text x="500" y="336" text-anchor="middle" font-size="13">EXPLORE  →  BUILD  →  LEVEL UP</text></g>
  <g fill="#ffe07a"><rect x="950" y="24" width="8" height="8"/><rect x="946" y="28" width="16" height="8"/><animate attributeName="opacity" values="1;.2;1" dur="1s" repeatCount="indefinite"/></g>
</svg>
