<svg width="1000" height="110" viewBox="0 0 1000 110" xmlns="http://www.w3.org/2000/svg" shape-rendering="crispEdges">
  <rect width="1000" height="44" fill="#b94d72"/><rect y="44" width="1000" height="22" fill="#ee7d63"/><rect y="66" width="1000" height="18" fill="#247e8a"/><rect y="84" width="1000" height="26" fill="#e3a64d"/>
  <g fill="#8ce4d5"><rect y="69" width="120" height="5"/><rect x="190" y="69" width="90" height="5"/><rect x="370" y="69" width="130" height="5"/><rect x="610" y="69" width="80" height="5"/><rect x="780" y="69" width="130" height="5"/><animateTransform attributeName="transform" type="translate" values="-60 0;30 0;-60 0" dur="4s" repeatCount="indefinite"/></g>
  <text x="500" y="38" text-anchor="middle" fill="#fff4dc" font-family="Courier New,monospace" font-size="20" font-weight="700" letter-spacing="2">BUILD  •  LEARN  •  LEVEL UP  •  REPEAT</text>
  <g><rect x="-14" y="88" width="28" height="12" fill="#ee7d63"/><rect x="-8" y="82" width="16" height="8" fill="#ee7d63"/><rect x="-20" y="92" width="8" height="5" fill="#ee7d63"/><rect x="12" y="92" width="8" height="5" fill="#ee7d63"/><rect x="-10" y="100" width="6" height="6" fill="#ee7d63"/><rect x="4" y="100" width="6" height="6" fill="#ee7d63"/><rect x="-5" y="83" width="3" height="3" fill="#fff4dc"/><rect x="2" y="83" width="3" height="3" fill="#fff4dc"/><rect x="-4" y="84" width="2" height="2" fill="#0d2020"/><rect x="3" y="84" width="2" height="2" fill="#0d2020"/><animateTransform attributeName="transform" type="translate" from="20 0" to="980 0" dur="14s" repeatCount="indefinite"/></g>
</svg>
