<svg width="1000" height="110" viewBox="0 0 1000 110" xmlns="http://www.w3.org/2000/svg" shape-rendering="crispEdges">
  <rect width="1000" height="44" fill="#b94d72"/><rect y="44" width="1000" height="22" fill="#ee7d63"/><rect y="66" width="1000" height="18" fill="#247e8a"/><rect y="84" width="1000" height="26" fill="#e3a64d"/>
  <g fill="#8ce4d5"><rect y="69" width="120" height="5"/><rect x="190" y="69" width="90" height="5"/><rect x="370" y="69" width="130" height="5"/><rect x="610" y="69" width="80" height="5"/><rect x="780" y="69" width="130" height="5"/><animateTransform attributeName="transform" type="translate" values="-60 0;30 0;-60 0" dur="4s" repeatCount="indefinite"/></g>
  <text x="500" y="38" text-anchor="middle" fill="#fff4dc" font-family="Courier New,monospace" font-size="20" font-weight="700" letter-spacing="2">BUILD  •  LEARN  •  LEVEL UP  •  REPEAT</text>
  <!-- Clawd walking across the beach -->
  <g>
    <rect x="-14" y="83" width="28" height="18" fill="#d37355"/>
    <rect x="-18" y="91" width="36" height="7" fill="#d37355"/>
    <rect x="-9" y="86" width="4" height="4" fill="#0d0d0d"/>
    <rect x="5" y="86" width="4" height="4" fill="#0d0d0d"/>
    <rect x="-13" y="101" width="4" height="8" fill="#d37355"/>
    <rect x="-6" y="101" width="4" height="8" fill="#d37355"/>
    <rect x="2" y="101" width="4" height="8" fill="#d37355"/>
    <rect x="9" y="101" width="4" height="8" fill="#d37355"/>
    <animateTransform attributeName="transform" type="translate" from="20 0" to="980 0" dur="14s" repeatCount="indefinite"/>
  </g>
</svg>
