<svg width="1000" height="270" viewBox="0 0 1000 270" xmlns="http://www.w3.org/2000/svg" shape-rendering="crispEdges">
  <rect width="1000" height="270" rx="18" fill="#3b174f"/>
  <rect x="8" y="8" width="984" height="254" fill="#8d5638"/>
  <rect x="16" y="16" width="968" height="238" fill="#e3a64d"/>
  <g fill="#bd743c"><rect x="16" y="78" width="968" height="8"/><rect x="16" y="184" width="968" height="8"/><rect x="164" y="16" width="8" height="238"/><rect x="328" y="16" width="8" height="238"/><rect x="492" y="16" width="8" height="238"/><rect x="656" y="16" width="8" height="238"/><rect x="820" y="16" width="8" height="238"/></g>
  <g font-family="Courier New,monospace" text-anchor="middle" font-weight="700">
    <!-- JavaScript -->
    <g><animateTransform attributeName="transform" type="translate" values="0 2;0 -4;0 2" dur="2.8s" repeatCount="indefinite"/><rect x="58" y="32" width="56" height="56" fill="#f7df1e"/><rect x="64" y="38" width="44" height="44" fill="#f7df1e"/><text x="86" y="74" font-size="26" fill="#292929">JS</text><text x="86" y="111" font-size="13" fill="#55234e">JAVASCRIPT</text></g>
    <!-- Node -->
    <g><animateTransform attributeName="transform" type="translate" values="0 -3;0 4;0 -3" dur="3.2s" begin="-.4s" repeatCount="indefinite"/><path d="M224 30h28l24 14v30l-24 14h-28l-24-14V44z" fill="#43853d"/><text x="238" y="69" font-size="26" fill="white">N</text><text x="238" y="111" font-size="13" fill="#55234e">NODE.JS</text></g>
    <!-- Express -->
    <g><animateTransform attributeName="transform" type="translate" values="0 3;0 -5;0 3" dur="2.9s" begin="-.8s" repeatCount="indefinite"/><rect x="374" y="36" width="80" height="46" fill="#fff4dc"/><rect x="380" y="42" width="68" height="34" fill="#3b174f"/><text x="414" y="67" font-size="20" fill="#fff4dc">EX</text><text x="414" y="111" font-size="13" fill="#55234e">EXPRESS</text></g>
    <!-- MySQL -->
    <g><animateTransform attributeName="transform" type="translate" values="0 -4;0 3;0 -4" dur="3.4s" begin="-1.1s" repeatCount="indefinite"/><path d="M540 46h52v28h-52zM548 38h36v8h-36z" fill="#00758f"/><path d="M586 36l22 8-16 8z" fill="#f29111"/><rect x="552" y="54" width="28" height="6" fill="#8ce4d5"/><text x="574" y="111" font-size="13" fill="#55234e">MYSQL</text></g>
    <!-- HTML -->
    <g><animateTransform attributeName="transform" type="translate" values="0 2;0 -5;0 2" dur="3s" begin="-.2s" repeatCount="indefinite"/><path d="M704 30h60l-7 55-23 9-23-9z" fill="#e34f26"/><path d="M734 38h20l-4 40-16 6z" fill="#f06529"/><text x="734" y="70" font-size="25" fill="white">5</text><text x="734" y="111" font-size="13" fill="#55234e">HTML</text></g>
    <!-- CSS -->
    <g><animateTransform attributeName="transform" type="translate" values="0 -3;0 5;0 -3" dur="3.3s" begin="-.7s" repeatCount="indefinite"/><path d="M868 30h60l-7 55-23 9-23-9z" fill="#1572b6"/><path d="M898 38h20l-4 40-16 6z" fill="#33a9dc"/><text x="898" y="70" font-size="25" fill="white">3</text><text x="898" y="111" font-size="13" fill="#55234e">CSS</text></g>
    <!-- Kotlin -->
    <g><animateTransform attributeName="transform" type="translate" values="0 4;0 -3;0 4" dur="3.1s" begin="-.9s" repeatCount="indefinite"/><rect x="58" y="142" width="56" height="56" fill="#7f52ff"/><path d="M58 198l56-56v56z" fill="#ee7d63"/><text x="86" y="179" font-size="26" fill="white">K</text><text x="86" y="231" font-size="13" fill="#55234e">KOTLIN</text></g>
    <!-- Java -->
    <g><animateTransform attributeName="transform" type="translate" values="0 -4;0 4;0 -4" dur="2.7s" begin="-.3s" repeatCount="indefinite"/><rect x="214" y="170" width="48" height="20" fill="#5382a1"/><rect x="220" y="190" width="36" height="8" fill="#f89820"/><path d="M228 166c-10-10 14-12 2-24M244 166c-10-10 14-12 2-24" fill="none" stroke="#e76f00" stroke-width="5"/><text x="238" y="231" font-size="13" fill="#55234e">JAVA</text></g>
    <!-- Android -->
    <g><animateTransform attributeName="transform" type="translate" values="0 3;0 -4;0 3" dur="3.5s" begin="-1.3s" repeatCount="indefinite"/><rect x="382" y="156" width="64" height="38" rx="8" fill="#a4c639"/><rect x="390" y="146" width="48" height="22" rx="12" fill="#a4c639"/><path d="M398 148l-8-12M430 148l8-12" stroke="#a4c639" stroke-width="5"/><rect x="398" y="153" width="5" height="5" fill="#3b174f"/><rect x="425" y="153" width="5" height="5" fill="#3b174f"/><text x="414" y="231" font-size="13" fill="#55234e">ANDROID</text></g>
    <!-- Git -->
    <g><animateTransform attributeName="transform" type="translate" values="0 -3;0 5;0 -3" dur="3s" begin="-.5s" repeatCount="indefinite"/><rect x="546" y="146" width="56" height="56" transform="rotate(45 574 174)" fill="#f05032"/><path d="M558 160l32 30M574 176v-18" stroke="white" stroke-width="5"/><circle cx="558" cy="160" r="5" fill="white"/><circle cx="574" cy="176" r="5" fill="white"/><circle cx="590" cy="190" r="5" fill="white"/><text x="574" y="231" font-size="13" fill="#55234e">GIT</text></g>
    <!-- GitHub -->
    <g><animateTransform attributeName="transform" type="translate" values="0 4;0 -4;0 4" dur="3.6s" begin="-.8s" repeatCount="indefinite"/><circle cx="734" cy="170" r="31" fill="#24292e"/><path d="M715 162l8-10 6 6h10l6-6 8 10v20h-38z" fill="#fff4dc"/><text x="734" y="231" font-size="13" fill="#55234e">GITHUB</text></g>
    <!-- VS Code -->
    <g><animateTransform attributeName="transform" type="translate" values="0 -4;0 3;0 -4" dur="2.9s" begin="-1s" repeatCount="indefinite"/><path d="M866 170l24-22 38-14v72l-38-14z" fill="#007acc"/><path d="M890 148l-22 22 22 22 10-8-14-14 14-14z" fill="#23a8f2"/><text x="898" y="231" font-size="13" fill="#55234e">VS CODE</text></g>
  </g>
  <rect x="12" y="12" width="976" height="246" fill="none" stroke="#fff4dc" stroke-width="4" stroke-dasharray="18 10"><animate attributeName="stroke-dashoffset" from="0" to="-56" dur="2s" repeatCount="indefinite"/></rect>
</svg>
