<svg width="1000" height="54" viewBox="0 0 1000 54" xmlns="http://www.w3.org/2000/svg" shape-rendering="crispEdges">
  <rect y="10" width="1000" height="14" fill="#247e8a"/>
  <g fill="#8ce4d5"><rect y="10" width="110" height="5"/><rect x="180" y="10" width="90" height="5"/><rect x="350" y="10" width="120" height="5"/><rect x="560" y="10" width="80" height="5"/><rect x="720" y="10" width="130" height="5"/><rect x="930" y="10" width="70" height="5"/><animateTransform attributeName="transform" type="translate" values="-60 0;30 0;-60 0" dur="4s" repeatCount="indefinite"/></g>
  <rect y="24" width="1000" height="30" fill="#e3a64d"/>
  <g fill="#fff4dc"><rect x="110" y="34" width="10" height="8"/><rect x="105" y="38" width="20" height="6"/><rect x="842" y="37" width="16" height="7"/></g>
  <g fill="#b94d72"><rect x="690" y="34" width="6" height="18"/><rect x="684" y="40" width="18" height="6" transform="rotate(45 693 43)"/></g>
  <g fill="#ee7d63"><rect x="470" y="34" width="28" height="12"/><rect x="476" y="28" width="16" height="8"/><rect x="464" y="38" width="8" height="5"/><rect x="496" y="38" width="8" height="5"/><rect x="474" y="46" width="6" height="6"/><rect x="490" y="46" width="6" height="6"/><rect x="476" y="31" width="4" height="4" fill="#3b174f"/><rect x="488" y="31" width="4" height="4" fill="#3b174f"/><animateTransform attributeName="transform" type="translate" values="-220 0;220 0;-220 0" dur="9s" repeatCount="indefinite"/></g>
</svg>
